<?xml version="1.0" standalone="no"?>
<!DOCTYPE svg PUBLIC "-//W3C//DTD SVG 20010904//EN"
 "http://www.w3.org/TR/2001/REC-SVG-20010904/DTD/svg10.dtd">
<svg version="1.0" xmlns="http://www.w3.org/2000/svg"
 width="2128.000000pt" height="936.000000pt" viewBox="0 0 2128.000000 936.000000"
 preserveAspectRatio="xMidYMid meet">

<g transform="translate(0.000000,936.000000) scale(0.100000,-0.100000)"
fill="#000000" stroke="none">
<path d="M10375 9319 c-312 -38 -655 -152 -925 -307 -218 -126 -362 -235 -531
-405 -235 -236 -398 -474 -524 -767 -76 -176 -109 -286 -165 -555 -97 -466
-11 -1040 226 -1506 115 -226 218 -377 371 -542 257 -278 555 -487 880 -616
217 -86 429 -144 633 -173 134 -19 502 -16 656 5 337 46 755 207 1049 404 575
386 965 1003 1062 1679 24 166 24 534 0 699 -36 242 -124 529 -223 726 -227
453 -571 806 -1049 1076 -220 124 -544 234 -795 269 -128 18 -554 26 -665 13z
m676 -153 c117 -22 315 -77 435 -121 520 -190 1004 -620 1253 -1111 144 -283
224 -573 251 -906 37 -444 -95 -958 -354 -1376 -204 -329 -533 -630 -883 -808
-396 -200 -812 -289 -1232 -263 -412 26 -798 153 -1141 376 -410 267 -697 623
-883 1093 -55 139 -88 259 -122 443 -22 123 -25 164 -25 380 0 196 4 266 20
367 41 250 100 436 205 647 235 474 600 838 1070 1069 222 108 438 175 710
219 123 20 572 14 696 -9z"/>
<path d="M9430 8759 c-58 -39 -130 -89 -160 -112 l-55 -42 55 -5 55 -5 7 -50
c3 -27 7 -90 8 -140 2 -135 1 -134 90 -88 l75 38 5 87 5 87 33 -40 c19 -22
146 -184 283 -362 787 -1014 705 -914 732 -889 29 25 77 93 77 108 0 11 -257
345 -705 914 -271 345 -365 471 -370 496 -3 13 -7 35 -10 49 -3 14 -9 25 -13
25 -4 -1 -54 -32 -112 -71z"/>
<path d="M11760 8809 c0 -35 -43 -110 -129 -223 -45 -59 -80 -113 -78 -119 2
-7 36 -20 77 -30 l73 -19 43 43 44 43 0 -1497 c0 -1359 1 -1498 16 -1504 20
-7 133 46 145 68 5 9 6 651 2 1505 -5 1115 -3 1495 5 1511 7 12 31 28 54 35
l43 15 -45 28 c-25 15 -88 59 -141 96 -53 38 -99 69 -103 69 -3 0 -6 -9 -6
-21z"/>
<path d="M10475 8544 c-211 -17 -518 -68 -591 -99 -19 -8 -34 -21 -34 -29 0
-8 22 -38 48 -67 l49 -53 149 27 c208 37 333 47 604 47 354 0 594 -34 905
-130 72 -22 136 -40 143 -40 8 0 12 23 12 80 0 77 -1 80 -27 93 -61 31 -321
99 -463 121 -232 36 -642 62 -795 50z"/>
<path d="M9529 8327 c-132 -58 -316 -169 -462 -278 -307 -230 -494 -481 -596
-801 -53 -168 -71 -356 -52 -558 39 -413 168 -707 418 -956 153 -153 396 -329
463 -336 25 -3 25 -2 25 71 0 84 18 63 -163 196 -242 178 -432 436 -515 701
-53 169 -80 386 -65 540 35 385 211 720 505 961 156 129 414 289 544 338 38
15 69 32 69 39 0 11 -76 109 -88 113 -4 2 -41 -12 -83 -30z"/>
<path d="M11389 8260 c-9 -5 -163 -202 -342 -437 -180 -235 -391 -511 -470
-613 -78 -102 -264 -345 -412 -540 -148 -195 -316 -416 -372 -490 -93 -122
-101 -136 -83 -144 22 -10 1915 5 1925 16 4 3 -56 87 -132 185 -76 98 -267
346 -423 551 -156 204 -289 372 -295 372 -7 0 -29 -24 -50 -54 -27 -40 -36
-61 -31 -78 3 -13 50 -80 103 -150 235 -303 469 -612 486 -637 l17 -28 -522
-6 c-288 -3 -577 -3 -642 1 l-119 7 59 75 c33 41 213 278 400 525 187 248 503
661 702 920 199 258 362 475 362 482 0 7 -30 21 -66 33 -75 23 -73 23 -95 10z"/>
<path d="M11970 8162 l0 -89 50 -27 c143 -78 351 -266 467 -423 84 -113 166
-277 203 -408 26 -92 33 -139 41 -284 11 -199 3 -303 -35 -454 -83 -327 -285
-616 -589 -843 -238 -178 -671 -332 -1065 -379 -471 -56 -1030 3 -1384 145
-55 22 -104 38 -109 35 -13 -9 -11 -126 4 -155 16 -32 66 -50 302 -110 418
-107 845 -134 1222 -77 403 60 730 172 1026 350 134 81 192 126 313 240 160
152 307 367 389 572 161 399 131 931 -72 1305 -92 170 -283 381 -476 526 -98
74 -250 164 -276 164 -7 0 -11 -29 -11 -88z"/>
<path d="M9430 8079 c-30 -16 -62 -37 -70 -45 -13 -13 -15 -183 -13 -1424 2
-1387 2 -1409 -18 -1434 -11 -13 -31 -26 -46 -28 -15 -2 -28 -7 -30 -13 -2 -9
239 -171 305 -204 18 -10 22 -9 22 5 0 9 -10 30 -22 47 -20 28 -22 46 -29 251
-4 122 -11 818 -15 1549 -5 954 -10 1327 -18 1327 -6 0 -36 -14 -66 -31z"/>
<path d="M11864 5286 l-71 -34 -5 -96 c-5 -88 -9 -105 -43 -172 -21 -41 -35
-77 -32 -80 3 -3 45 23 94 58 49 34 124 85 166 112 81 52 94 73 50 78 -33 4
-50 33 -60 108 -5 29 -13 55 -18 56 -6 1 -42 -12 -81 -30z"/>
<path d="M424 2425 c-193 -42 -341 -192 -400 -405 -25 -91 -25 -319 0 -410 53
-195 174 -331 351 -397 47 -17 108 -18 1005 -23 l955 -5 -3 -55 c-5 -94 -52
-116 -119 -56 -49 43 -75 56 -112 56 -57 0 -92 -85 -56 -137 25 -35 77 -47
147 -33 126 24 214 86 258 179 l23 51 9251 0 c7906 0 9258 2 9297 14 110 33
187 95 230 184 19 38 23 63 23 137 0 78 -3 97 -26 141 -47 89 -124 149 -325
252 -202 104 -262 153 -283 233 -24 89 15 180 92 218 54 26 153 28 222 5 98
-34 190 -148 217 -270 7 -30 16 -54 21 -54 10 0 11 367 0 374 -5 3 -16 -4 -25
-15 -22 -25 -46 -24 -168 7 -83 22 -116 26 -176 21 -183 -14 -296 -129 -295
-302 1 -148 71 -224 315 -345 106 -52 181 -96 216 -127 113 -99 133 -235 50
-336 -51 -61 -92 -77 -207 -77 -85 0 -105 3 -150 26 -101 50 -182 169 -199
290 -13 95 -23 35 -23 -136 l0 -180 -74 0 c-66 0 -77 3 -90 22 -14 20 -16 88
-16 546 l0 523 23 23 c16 16 41 26 75 31 111 15 44 25 -168 25 -140 0 -220 -4
-220 -10 0 -5 10 -10 23 -10 35 0 95 -19 112 -36 13 -13 15 -82 15 -545 0
-347 -4 -537 -10 -550 -10 -17 -22 -19 -145 -19 l-134 0 48 45 c68 64 95 128
95 230 0 174 -78 257 -384 410 -161 80 -201 110 -234 177 -30 59 -33 112 -11
165 33 79 92 112 200 113 156 0 283 -112 325 -287 6 -29 16 -53 21 -53 5 0 9
82 9 185 0 150 -3 185 -14 185 -7 0 -19 -7 -27 -16 -16 -20 -61 -16 -179 16
-190 51 -358 -7 -427 -148 -23 -47 -28 -70 -27 -132 0 -156 56 -219 312 -349
193 -98 247 -138 290 -209 22 -38 27 -59 27 -112 0 -84 -31 -142 -99 -187 -47
-32 -52 -33 -152 -33 -92 0 -111 3 -155 25 -98 50 -182 172 -196 283 -4 34
-10 52 -19 52 -11 0 -14 -35 -14 -180 l0 -180 -157 1 c-151 0 -157 1 -133 17
110 74 199 205 236 347 25 95 25 304 1 395 -60 224 -205 373 -404 415 -313 67
-580 -104 -658 -420 -24 -95 -24 -285 0 -380 36 -147 120 -276 222 -344 l46
-31 -189 0 c-135 0 -194 4 -202 12 -9 9 -12 146 -12 554 0 460 2 543 14 554 8
6 42 17 75 23 34 6 61 15 61 19 0 5 -101 8 -225 8 -124 0 -225 -3 -225 -8 0
-4 27 -13 61 -19 33 -6 67 -17 75 -23 11 -10 14 -57 14 -266 l0 -254 -295 0
-295 0 0 249 c0 211 2 252 15 265 17 17 77 36 113 36 12 0 22 5 22 10 0 6 -80
10 -220 10 -212 0 -279 -10 -168 -25 34 -5 59 -15 75 -31 l23 -23 0 -523 c0
-458 -2 -526 -16 -546 -15 -22 -16 -22 -344 -22 -285 0 -331 2 -344 16 -14 13
-16 48 -16 232 l0 217 133 1 c202 1 332 46 422 146 60 67 79 127 73 237 -7
129 -58 210 -172 268 -88 45 -157 53 -463 53 -264 0 -349 -9 -234 -24 27 -3
61 -16 75 -27 l26 -20 0 -534 c0 -472 -2 -535 -16 -549 -11 -11 -34 -16 -77
-16 -100 0 -117 17 -316 324 -67 103 -119 192 -114 196 4 3 30 15 56 24 94 35
182 126 207 214 27 98 -1 218 -67 285 -52 54 -108 84 -198 107 -69 18 -111 20
-367 20 -158 0 -288 -3 -288 -8 0 -4 27 -13 61 -19 33 -6 67 -17 75 -23 12
-11 14 -94 14 -554 0 -408 -3 -545 -12 -554 -8 -8 -67 -12 -201 -12 l-189 0
59 44 c145 106 223 289 223 521 0 200 -59 364 -170 475 -68 68 -135 104 -236
130 -307 79 -588 -88 -671 -400 -25 -91 -25 -320 0 -410 37 -137 108 -247 206
-320 l53 -40 -185 0 c-155 0 -188 3 -201 16 -14 14 -16 77 -16 549 l0 534 25
19 c14 11 48 23 75 27 96 13 49 25 -99 25 l-149 0 -125 -283 c-68 -155 -166
-378 -218 -494 -51 -117 -97 -209 -101 -205 -4 4 -103 226 -220 492 l-213 485
-158 3 c-102 2 -157 -1 -157 -8 0 -5 10 -10 23 -10 35 0 95 -19 112 -36 13
-13 15 -82 15 -545 0 -347 -4 -537 -10 -550 -9 -16 -22 -19 -74 -19 -58 0 -67
3 -88 28 -13 15 -97 201 -187 412 -91 212 -197 462 -237 555 -52 121 -77 170
-89 170 -12 0 -72 -139 -241 -555 -123 -305 -232 -566 -243 -580 -18 -24 -22
-25 -162 -28 -137 -3 -145 -2 -161 19 -17 20 -18 62 -18 561 l0 540 128 -4
c110 -3 133 -7 168 -27 50 -28 85 -80 114 -171 12 -39 26 -70 31 -70 12 0 10
31 -9 185 l-17 130 -485 0 -485 0 -17 -135 c-9 -74 -17 -145 -17 -157 -1 -37
17 -26 29 17 18 67 50 133 78 163 49 52 77 61 215 65 l127 4 0 -541 c0 -355
-4 -549 -10 -562 -10 -18 -23 -19 -225 -19 -118 0 -215 3 -215 8 1 4 18 69 39
144 33 118 36 138 22 138 -10 0 -25 -22 -40 -55 -39 -90 -93 -157 -153 -190
-51 -29 -58 -30 -210 -33 -93 -3 -185 1 -227 8 l-71 12 0 264 0 264 166 0
c131 0 173 -3 199 -16 37 -17 55 -54 55 -110 0 -24 5 -34 15 -34 13 0 15 28
15 190 0 162 -2 190 -15 190 -11 0 -15 -11 -15 -40 0 -55 -23 -95 -62 -110
-18 -6 -106 -14 -195 -17 l-163 -6 0 257 0 256 193 0 c198 0 251 -7 300 -42
31 -22 66 -87 93 -170 20 -64 49 -82 39 -25 -6 37 -35 267 -35 279 0 4 -264 8
-587 8 l-588 0 -194 -443 c-107 -243 -206 -467 -219 -497 l-24 -55 -18 35 c-9
19 -109 243 -220 498 l-203 462 -159 0 c-87 0 -158 -3 -158 -8 0 -4 27 -13 61
-19 33 -6 67 -17 75 -23 12 -11 14 -94 14 -554 0 -408 -3 -545 -12 -554 -17
-17 -1029 -17 -1046 0 -9 9 -12 85 -12 280 l0 268 164 0 c93 0 177 -5 195 -11
38 -14 61 -54 61 -109 0 -29 4 -40 15 -40 13 0 15 28 15 190 0 162 -2 190 -15
190 -11 0 -15 -11 -15 -40 0 -55 -23 -95 -62 -110 -18 -6 -106 -14 -195 -17
l-163 -6 0 257 0 258 218 -4 c241 -3 255 -7 309 -73 17 -20 42 -71 57 -115 27
-75 46 -102 46 -62 0 9 -8 81 -17 160 l-17 142 -448 0 c-246 0 -448 -3 -448
-8 0 -4 27 -13 61 -19 33 -6 67 -17 75 -23 12 -11 14 -94 14 -554 0 -408 -3
-545 -12 -554 -8 -8 -67 -12 -202 -12 l-189 0 46 31 c131 87 216 245 236 441
31 306 -83 558 -299 661 -211 100 -454 66 -617 -86 -242 -227 -243 -734 -1
-962 35 -33 72 -65 83 -72 16 -9 -92 -12 -495 -12 -389 -1 -519 2 -528 11 -9
9 -12 147 -12 561 l0 549 123 -4 c183 -6 229 -37 278 -193 13 -41 29 -75 35
-75 11 0 10 13 -17 228 l-11 92 -483 0 -482 0 -6 -27 c-3 -16 -11 -79 -18
-140 -7 -62 -13 -112 -15 -110 -1 1 -7 61 -14 132 -14 165 -14 166 -46 132
-32 -34 -65 -35 -169 -1 -106 34 -234 42 -335 20 -213 -45 -372 -203 -427
-422 -20 -82 -23 -286 -4 -354 46 -169 131 -295 250 -372 l45 -28 -177 0 c-97
0 -177 3 -177 8 1 4 18 69 39 145 33 117 36 137 22 137 -10 0 -25 -22 -40 -56
-37 -86 -96 -158 -154 -190 -50 -27 -59 -29 -209 -32 -93 -3 -185 1 -227 8
l-71 12 0 264 0 264 166 0 c131 0 173 -3 199 -16 37 -17 55 -54 55 -110 0 -24
5 -34 15 -34 13 0 15 28 15 190 0 162 -2 190 -15 190 -11 0 -15 -11 -15 -40 0
-55 -23 -95 -62 -110 -18 -6 -106 -14 -195 -17 l-163 -6 0 257 0 256 193 0
c198 0 251 -7 300 -42 31 -22 66 -87 93 -170 20 -64 49 -82 39 -25 -6 37 -35
267 -35 279 0 4 -292 8 -650 8 -418 0 -650 -3 -650 -10 0 -5 12 -12 28 -15 67
-14 101 -26 113 -42 11 -13 15 -117 17 -560 l3 -543 -228 0 -228 0 45 26 c60
34 88 61 112 108 42 83 39 213 -7 292 -35 60 -104 119 -169 143 -31 11 -62 21
-69 21 -7 1 11 12 40 26 65 31 136 109 157 171 60 176 -39 328 -242 372 -60
13 -692 16 -692 3 0 -4 27 -13 61 -19 33 -6 67 -17 75 -23 12 -11 14 -94 14
-554 0 -408 -3 -545 -12 -554 -8 -8 -66 -12 -197 -12 l-184 0 46 31 c66 43
131 121 171 204 94 193 91 479 -7 675 -104 210 -354 319 -603 265z m2286 -49
l25 -11 3 -544 c1 -393 -1 -548 -9 -557 -9 -10 -42 -14 -130 -14 l-119 0 0
545 c0 526 1 546 19 564 18 18 35 23 111 34 30 5 67 -2 100 -17z m7126 3 l29
-14 3 -544 c1 -393 -1 -548 -9 -557 -15 -18 -239 -20 -257 -2 -18 18 -17 1091
1 1106 39 32 175 39 233 11z m-9131 -28 c160 -79 245 -267 245 -543 0 -260
-90 -456 -243 -533 -44 -22 -64 -25 -151 -25 -86 0 -109 4 -153 25 -102 47
-184 160 -225 312 -30 111 -30 344 0 455 48 177 150 298 282 335 74 21 170 11
245 -26z m3598 9 c88 -33 167 -111 222 -222 25 -50 45 -96 45 -104 0 -8 5 -14
10 -14 6 0 10 16 10 35 0 19 4 43 9 53 5 9 21 50 36 91 52 139 106 171 292
171 l103 0 0 -548 c0 -413 -3 -551 -12 -560 -9 -9 -94 -12 -322 -12 l-311 0
30 20 c81 53 205 210 205 259 0 28 -31 6 -58 -41 -38 -69 -128 -153 -195 -183
-111 -51 -253 -49 -365 6 -172 84 -272 279 -272 529 0 340 181 561 445 546 39
-2 96 -14 128 -26z m2352 -9 c159 -79 246 -266 246 -534 0 -72 -7 -153 -16
-197 -32 -156 -123 -292 -228 -345 -44 -22 -64 -25 -151 -25 -86 0 -109 4
-153 25 -102 47 -184 160 -225 312 -28 103 -30 333 -5 435 35 143 112 262 205
320 93 57 221 61 327 9z m8111 5 c106 -49 190 -163 231 -316 14 -49 18 -103
18 -225 0 -179 -12 -242 -67 -355 -38 -77 -114 -157 -180 -188 -39 -18 -66
-22 -148 -22 -89 0 -107 3 -153 26 -101 51 -182 165 -223 314 -26 94 -26 348
0 445 21 80 66 173 107 226 95 121 271 161 415 95z m4109 0 c107 -53 193 -177
232 -334 25 -102 23 -332 -5 -435 -41 -151 -124 -266 -227 -313 -42 -20 -66
-24 -151 -24 -87 0 -107 3 -151 25 -105 53 -195 189 -228 345 -10 44 -16 124
-16 195 0 200 47 352 141 458 100 112 272 148 405 83z m-17176 0 c71 -26 109
-55 139 -104 23 -41 27 -58 27 -127 0 -67 -4 -87 -25 -125 -53 -94 -149 -130
-352 -130 l-128 0 0 245 0 245 23 4 c12 3 31 7 42 10 40 10 231 -3 274 -18z
m14006 9 c90 -19 152 -58 190 -119 28 -46 30 -57 30 -140 0 -72 -5 -101 -21
-136 -55 -116 -180 -180 -352 -180 -37 0 -77 3 -89 6 l-23 6 0 284 0 283 33 4
c73 9 166 6 232 -8z m1078 -15 c118 -44 167 -119 167 -257 0 -110 -25 -176
-88 -235 -78 -73 -215 -110 -347 -93 l-55 6 0 299 0 299 38 4 c81 10 228 -2
285 -23z m-8103 -560 c117 -267 219 -497 227 -512 l14 -28 -220 0 c-186 0
-222 2 -235 16 -14 14 -16 75 -16 522 0 278 4 502 8 497 5 -6 105 -228 222
-495z m749 -526 c-9 -11 -58 -14 -231 -14 -121 0 -218 4 -216 8 2 5 104 239
228 520 l225 511 3 -506 c1 -365 -1 -510 -9 -519z m3621 516 c122 -278 225
-511 227 -517 7 -18 -427 -19 -445 -1 -9 9 -12 139 -12 522 0 280 2 507 4 505
2 -2 104 -231 226 -509z m760 6 c0 -445 -2 -506 -16 -520 -13 -14 -48 -16
-231 -16 -200 0 -215 1 -210 18 3 9 100 233 217 497 117 264 216 490 221 503
5 12 11 22 14 22 3 0 5 -227 5 -504z m-1641 104 l120 -285 -236 -3 c-130 -1
-238 0 -241 3 -8 7 222 584 230 577 4 -4 61 -135 127 -292z m-10486 -95 c137
-29 217 -98 238 -207 17 -92 -14 -193 -75 -245 -98 -83 -279 -112 -443 -71
l-43 10 0 264 0 264 128 0 c72 0 157 -7 195 -15z m16227 -258 c0 -191 -3 -266
-12 -275 -9 -9 -86 -12 -285 -12 -259 0 -273 1 -283 19 -6 12 -10 118 -10 275
l0 256 295 0 295 0 0 -263z m-2111 -32 c88 -135 161 -248 161 -250 0 -3 -112
-5 -248 -5 -180 0 -251 3 -260 12 -9 9 -12 78 -12 250 l0 238 99 0 99 0 161
-245z m-3434 -81 c40 -95 47 -121 39 -142 l-9 -27 -334 -3 c-418 -3 -399 -12
-335 151 20 51 40 102 45 115 l9 22 268 0 269 0 48 -116z"/>
<path d="M11915 434 c-5 -1 -26 -5 -46 -8 -101 -17 -140 -158 -59 -216 16 -11
64 -27 107 -36 42 -8 85 -22 95 -31 42 -37 6 -84 -66 -85 -54 -1 -94 22 -108
63 -9 25 -15 29 -49 29 -38 0 -38 0 -32 -32 3 -18 15 -45 25 -61 32 -45 67
-57 169 -57 90 0 91 0 125 34 30 30 34 40 34 86 0 74 -30 102 -136 125 -114
24 -113 24 -120 52 -9 36 6 56 50 67 48 13 98 -10 116 -53 10 -26 18 -31 46
-31 30 0 34 3 34 28 0 39 -32 86 -71 104 -34 16 -96 28 -114 22z"/>
<path d="M9250 216 l0 -216 45 0 45 0 0 69 0 68 75 6 c124 11 175 51 175 139
0 109 -47 140 -222 146 l-118 4 0 -216z m239 120 c27 -25 28 -77 1 -101 -12
-11 -42 -19 -85 -22 l-65 -6 0 78 0 77 64 -4 c45 -3 71 -10 85 -22z"/>
<path d="M10021 408 c-5 -13 -41 -104 -81 -203 -40 -99 -74 -186 -77 -192 -4
-9 8 -13 39 -13 43 0 43 0 61 50 l18 50 93 0 94 0 18 -50 18 -50 47 0 47 0
-83 205 c-47 113 -87 210 -90 215 -3 6 -26 10 -51 10 -37 0 -46 -4 -53 -22z
m100 -190 l19 -48 -65 0 -65 0 11 28 c6 15 20 52 32 82 l20 55 15 -35 c8 -19
23 -56 33 -82z"/>
<path d="M10630 215 l0 -215 40 0 40 0 0 75 0 75 69 0 c83 0 97 -10 106 -78
10 -71 11 -72 54 -72 l41 0 -6 48 c-9 74 -23 108 -49 122 l-25 13 29 18 c39
24 51 48 51 104 0 38 -5 52 -28 75 -39 38 -88 50 -214 50 l-108 0 0 -215z
m249 121 c12 -11 21 -31 21 -46 0 -45 -32 -64 -116 -68 l-74 -4 0 72 0 72 74
-4 c55 -2 80 -8 95 -22z"/>
<path d="M11330 216 l0 -216 45 0 45 0 -2 213 -3 212 -42 3 -43 3 0 -215z"/>
</g>
</svg>
