<?xml version="1.0" encoding="UTF-8"?>
<svg width="552px" height="549px" viewBox="0 0 552 549" version="1.1" xmlns="http://www.w3.org/2000/svg" xmlns:xlink="http://www.w3.org/1999/xlink">
    <title>Artboard</title>
    <g id="Artboard" stroke="none" stroke-width="1" fill="none" fill-rule="evenodd">
        <g id="MONOGRAM_BLACK" transform="translate(-0.000000, -0.000000)" fill="#F5F5F5" fill-rule="nonzero">
            <g id="Group" transform="translate(275.848437, 274.500000) scale(-1, 1) rotate(-180.000000) translate(-275.848437, -274.500000) translate(0.000000, 0.000000)">
                <path d="M253.684069,548.347365 C199.092209,544.178532 143.970973,521.547725 100.032797,485.219323 C89.4452851,476.484626 69.6598715,456.236009 60.3296264,444.523573 C46.4996885,427.252694 39.8163214,416.665182 29.8243567,396.416564 C16.1267627,368.624345 11.693242,355.125267 4.21581146,318.135146 C0.245494366,298.217388 -0.680912956,285.313858 0.44401022,264.006489 C0.907213881,255.734995 1.7012773,245.544515 2.23065291,241.375682 C3.35557609,232.707156 6.26714196,216.031824 7.52440904,211.598304 C7.9876127,209.944005 9.57573953,203.988529 11.0976944,198.363913 C19.4353603,167.660128 37.632647,131.596414 57.9474361,105.392321 C67.0129935,93.746058 84.5485606,75.6811153 96.8565436,65.2921189 C115.252346,49.8078822 131.001271,39.5512297 153.102702,28.4343418 C171.961709,19.0379247 206.701983,7.45783321 225.891849,4.21540758 C247.927109,0.443606343 268.374242,-0.747488785 289.416923,0.443606343 C315.157812,1.89938928 327.862826,4.01689173 349.302539,10.501743 C374.977256,18.1776894 380.932732,20.4937077 402.967991,31.6767675 C430.826383,45.7713932 449.02367,59.0719554 472.448541,82.4968263 C492.564814,102.679271 504.674281,118.957572 519.364454,145.757212 C526.047821,157.866679 528.496184,163.292779 533.657596,176.791857 C544.377452,204.981109 549.141832,227.545744 551.259335,259.374453 C553.045978,287.497532 549.274176,322.833354 541.532058,349.566823 C531.672437,383.579206 520.092346,407.665796 500.968652,433.803717 C481.447926,460.603357 462.456576,479.197676 434.532012,498.65223 C405.085494,519.231706 376.896243,532.267581 342.023624,541.39931 C318.929613,547.48713 281.079257,550.398696 253.684069,548.347365 Z M307.614209,531.870549 C330.046501,529.554531 365.316151,519.36405 388.608678,508.379506 C401.90924,502.093171 426.723722,486.344247 439.494909,476.021422 C447.369371,469.735087 462.91978,454.780226 471.588305,445.185293 C485.087383,430.296604 498.851149,410.312674 507.718191,392.644763 C522.739224,362.933557 530.348998,337.854387 535.047207,302.915597 C536.50299,291.798709 536.701506,259.506797 535.378067,248.654597 C529.885795,204.385561 515.063277,164.086843 491.506063,129.214224 C479.462767,111.347797 463.184467,93.0181666 447.898747,80.2469799 C438.17147,71.975486 420.106527,58.7410957 412.629096,54.3075749 C379.807808,34.7868492 339.575262,21.2877711 302.717485,17.3836259 C290.34333,16.1263589 263.54369,16.0601869 250.904847,17.3836259 C216.363088,20.8907394 187.115086,29.625437 155.815752,45.7052212 C108.304291,70.1226713 71.1156545,106.649589 47.8231275,151.712688 C35.0519409,176.460997 27.4421665,197.371334 22.8101298,220.531517 C18.0457493,244.816623 18.2442652,242.500605 17.9795774,269.167902 C17.7810615,285.181514 17.9134054,296.56309 18.442781,301.261298 C20.8911432,324.818513 28.4347457,355.125267 36.243036,372.925522 C50.4700056,405.283606 67.0791654,430.627463 88.5850497,452.728895 C120.149071,485.153151 158.330287,509.107398 198.430489,521.547725 C215.436681,526.775309 238.067488,531.407346 252.69149,532.532269 C261.558531,533.26016 298.48248,532.796957 307.614209,531.870549 Z" id="Shape"></path>
                <path d="M144.500349,488.726437 C136.427371,483.565025 119.288835,471.455557 115.71555,468.411648 L113.399532,466.426489 L120.149071,466.360317 C126.633922,466.360317 126.964782,466.294145 127.295641,464.904534 C127.494157,464.044299 127.891189,456.699212 128.288221,448.49389 C128.61908,440.288568 129.082284,433.009654 129.346972,432.414106 C129.61166,431.620043 130.207207,431.355355 131.199786,431.686215 C133.581977,432.347934 143.044566,437.244659 145.360584,438.965129 L147.478087,440.619428 L147.478087,449.949673 L147.478087,459.279918 L149.794105,456.699212 C154.161454,451.802488 184.534379,412.761036 209.348861,380.33678 C218.083559,368.889033 224.634582,360.419023 243.758276,336.001573 C246.669842,332.229771 251.36805,326.208124 254.213444,322.502495 C261.426187,313.238421 262.55111,312.113498 263.940721,312.84139 C265.131816,313.503109 271.815184,322.039291 273.138623,324.553825 C273.73417,325.74492 273.667998,326.472812 272.807763,328.12711 C271.68284,330.376957 246.669842,362.735041 207.032843,413.422756 C171.564677,458.684371 155.551065,479.594707 154.35997,482.109242 C153.764422,483.300337 153.03653,486.278075 152.705671,488.726437 C152.374811,491.108627 152.043951,493.159958 151.911607,493.227687 C151.845435,493.292301 148.536838,491.240971 144.500349,488.726437 Z" id="Path"></path>
                <path d="M398.402127,489.123469 C397.343376,483.962056 393.836262,477.675721 387.616099,469.999775 C381.660623,462.588516 375.1096,453.192099 375.1096,452.067176 C375.1096,451.074596 377.49179,450.148189 383.976641,448.49389 C392.248135,446.376388 392.645167,446.508732 397.343376,451.471628 L401.379865,455.838977 L401.776896,377.29287 C402.041584,334.082586 402.2401,258.580389 402.2401,209.613145 C402.2401,133.647745 402.372444,120.347183 403.166507,119.685463 C405.151666,118.031164 419.775667,125.640939 420.503559,128.684848 C420.768246,129.611256 420.635903,202.598918 420.238871,290.938474 C419.908011,379.211857 419.775667,454.449366 420.040355,458.088823 C420.635903,467.154381 421.760826,468.874851 427.980989,469.668915 C429.635288,469.867431 431.024899,470.330634 431.157243,470.661494 C431.223415,471.058526 428.378021,473.2422 424.738564,475.558218 C421.032934,477.808065 414.018707,482.704789 409.055811,486.278075 C404.092915,489.85136 399.85791,492.829098 399.593222,492.829098 C399.328534,492.829098 398.799159,491.174799 398.402127,489.123469 Z" id="Path"></path>
                <path d="M251.69891,460.404842 C222.318564,457.956479 184.534379,450.545221 184.534379,447.236623 C184.534379,444.986777 195.452751,433.274341 197.570254,433.274341 C198.364317,433.274341 204.319793,434.266921 210.804644,435.524188 C235.42061,440.288568 252.426802,441.479663 287.63028,441.01646 C307.084834,440.817944 314.297576,440.420912 323.760165,439.295989 C342.817688,436.979971 363.330993,432.347934 384.704533,425.598395 C390.858524,423.613236 396.416968,422.02511 397.012516,422.02511 C398.600643,422.02511 398.931502,423.944096 398.931502,432.678794 L398.931502,440.288568 L394.828841,442.009039 C387.483755,444.986777 364.455916,451.339284 351.949417,453.721474 C324.620401,459.015231 275.189953,462.323828 251.69891,460.404842 Z" id="Path"></path>
                <path d="M148.801526,435.987391 C130.670411,427.649726 114.987658,418.120965 97.1212314,404.688058 C77.1373021,389.667025 63.3073642,375.506228 51.4625849,357.838317 C39.8824933,340.567437 29.6258409,315.22358 26.648103,296.629261 C25.2584921,287.629876 24.6629445,262.947738 25.6555238,252.16171 C28.5009177,220.928549 36.5077238,195.320004 50.6023495,172.556852 C64.1675996,150.587764 92.8200546,124.3175 118.362428,110.42139 C124.053216,107.311308 126.633922,106.980448 127.229469,109.164123 C127.692673,111.016937 126.964782,122.729373 126.23689,124.714531 C125.90603,125.574767 123.656184,127.493753 121.207822,129.08188 C112.274608,134.83884 97.3859192,146.485103 91.9598192,152.043547 C63.2411922,181.29155 49.5435983,208.885254 44.51453,247.662017 C38.8237421,291.401677 55.0358702,340.170406 85.6734838,371.403567 C105.392725,391.453668 139.140421,414.216819 162.366776,423.150033 C165.675373,424.4073 168.586939,425.730739 168.917799,425.995427 C169.64569,426.723318 168.388423,428.774649 163.227011,435.127156 C161.043337,437.707862 158.79349,439.891537 158.197943,439.891537 C157.602395,439.891537 153.36739,438.104894 148.801526,435.987391 Z" id="Path"></path>
                <path d="M356.316766,427.980585 C354.993327,426.78949 348.905507,419.245888 342.817688,411.17291 C310.988979,369.15372 296.232634,349.831511 278.167691,326.40664 C267.183147,312.245842 245.280231,283.461043 229.531306,262.550706 C213.71621,241.64037 194.394,216.164168 186.58571,205.973688 C170.902957,185.460383 167.528188,180.696002 168.256079,179.968111 C168.851627,179.438735 317.870862,179.769595 357.044657,180.431315 C372.06569,180.696002 384.572189,181.159206 384.836877,181.423894 C385.564768,182.085613 384.373673,183.806084 374.249365,196.709615 C369.220296,203.128294 349.037851,229.530903 329.318609,255.470308 C294.181303,301.724502 290.67419,306.224194 289.615438,306.224194 C288.755203,306.224194 283.395275,299.011452 281.476288,295.23965 L279.689646,291.666365 L281.343945,288.887143 C282.932071,286.107921 293.850443,271.81478 309.66554,251.499991 C321.245631,236.611301 346.192457,203.459154 347.251208,201.473995 C347.780584,200.481416 348.045272,199.555009 347.912928,199.422665 C347.582068,199.157977 246.60367,198.694773 222.450908,198.893289 C212.657459,198.959461 205.709404,199.290321 205.709404,199.621181 C205.709404,199.95204 209.348861,204.981109 213.848554,210.738068 C218.282075,216.495028 236.545533,240.581619 254.345788,264.205005 C285.909809,306.158022 299.541231,324.090621 349.434883,389.071478 C362.801617,406.408529 374.183193,421.36339 374.844912,422.355969 C375.969835,424.07644 375.969835,424.208784 374.911084,425.002847 C373.587645,425.995427 364.58826,428.973165 361.147318,429.634884 C359.029816,430.031916 358.434268,429.767228 356.316766,427.980585 Z" id="Path"></path>
                <path d="M421.826998,424.936676 C421.628482,423.216205 421.429966,418.782684 421.429966,415.077055 L421.429966,408.261344 L426.260518,405.614466 C439.296393,398.401723 450.413281,389.667025 463.449155,376.300291 C477.808469,361.610118 485.352071,351.287293 493.226533,335.604541 C497.792398,326.605156 499.182009,322.899526 503.417014,308.209353 C506.394752,297.9527 506.791783,293.982383 507.254987,272.145639 C507.585847,253.948353 507.453503,251.566162 506.196236,243.6917 C502.292091,220.002142 495.14552,201.275479 482.771365,182.548817 C472.051509,166.336689 461.000793,153.962534 446.376792,141.786895 C428.973568,127.361409 414.548083,119.288431 389.00571,109.825842 C357.110829,97.9810629 333.619786,92.8858227 299.1442,90.4374604 C277.903003,88.9155056 240.251163,90.7683202 216.958636,94.5401214 C198.099629,97.5178593 175.865854,103.539507 162.16826,109.362639 C157.271535,111.413969 152.970359,112.935924 152.440983,112.80358 C150.191137,111.943345 150.521996,96.459108 152.838015,93.5475422 C154.558485,91.3638678 168.653111,86.7980031 188.835556,81.9012787 C206.966671,77.4677579 212.657459,76.3428348 224.23755,75.0193957 C228.803415,74.4900201 237.141081,73.4312689 242.831869,72.7033774 C257.720558,70.7182189 275.785501,69.9903274 289.284579,70.6520469 C301.261702,71.3137664 331.171424,75.0855677 342.354484,77.335414 C357.243173,80.4454958 379.146089,86.6656592 393.637746,91.9594153 C414.878943,99.7015337 443.994601,116.046006 459.346494,128.75102 C468.676739,136.426967 484.822696,152.969955 490.248796,160.315041 C503.218498,177.784436 512.879603,195.981723 518.967423,214.245182 C525.253758,233.236532 527.040401,247.000298 526.444853,272.807359 C525.915477,297.026293 524.261179,306.75357 517.313124,327.266875 C507.122643,357.308941 486.940198,384.108581 456.5011,407.930484 C446.509136,415.738774 426.194346,427.980585 423.282781,427.980585 C422.554889,427.980585 422.157857,427.054178 421.826998,424.936676 Z" id="Path"></path>
                <path d="M139.074249,409.055407 C136.096511,407.334936 132.655569,405.151262 131.464474,404.158683 L129.2808,402.305868 L129.2808,297.224809 C129.2808,239.390523 129.413144,168.586535 129.61166,139.801736 C129.942519,89.5772251 129.876347,87.4597226 128.685252,85.0113604 C127.295641,82.2321385 125.310483,80.9748714 121.207822,80.2469799 C117.899224,79.7176043 117.568364,78.5265092 120.215243,76.6736945 C123.590012,74.1591604 145.823788,59.8660188 150.32348,57.2191408 C156.4113,53.5796834 157.205363,54.4399188 153.499734,60.5939103 C150.852856,65.0274311 150.720512,65.4906347 150.058793,73.0342372 C149.264729,83.0923738 148.27215,179.703423 147.742774,310.062168 L147.279571,412.099317 L145.88996,412.099317 C145.095896,412.099317 142.051987,410.709706 139.074249,409.055407 Z" id="Path"></path>
                <path d="M410.776282,95.9297324 L402.438616,92.2241031 L402.041584,82.893858 C401.644552,72.1078299 399.924082,65.4244628 395.953765,59.5351591 C393.637746,56.1603895 392.711339,52.9841359 393.836262,52.7194481 C394.167122,52.6532761 399.394706,56.0942176 405.416354,60.3953944 C411.504173,64.6965713 419.709495,70.2550152 423.745984,72.9018933 C431.818962,78.1294775 432.811542,79.5852604 428.907396,80.3131519 C424.209188,81.1072153 422.687233,83.5555775 421.429966,92.1579312 C420.569731,98.3119227 420.172699,99.7677056 419.577151,99.7015337 C419.312464,99.7015337 415.342146,97.9810629 410.776282,95.9297324 Z" id="Path"></path>
            </g>
        </g>
    </g>
</svg>