<?xml version="1.0" standalone="no"?>
<!DOCTYPE svg PUBLIC "-//W3C//DTD SVG 20010904//EN"
 "http://www.w3.org/TR/2001/REC-SVG-20010904/DTD/svg10.dtd">
<svg version="1.0" xmlns="http://www.w3.org/2000/svg"
 width="840.000000pt" height="836.000000pt" viewBox="0 0 840.000000 836.000000"
 preserveAspectRatio="xMidYMid meet">

<g transform="translate(0.000000,836.000000) scale(0.100000,-0.100000)"
fill="#000000" stroke="none">
<path d="M3865 8319 c-825 -63 -1658 -405 -2322 -954 -160 -132 -459 -438
-600 -615 -209 -261 -310 -421 -461 -727 -207 -420 -274 -624 -387 -1183 -60
-301 -74 -496 -57 -818 7 -125 19 -279 27 -342 17 -131 61 -383 80 -450 7 -25
31 -115 54 -200 126 -464 401 -1009 708 -1405 137 -176 402 -449 588 -606 278
-234 516 -389 850 -557 285 -142 810 -317 1100 -366 333 -57 642 -75 960 -57
389 22 581 54 905 152 388 116 478 151 811 320 421 213 696 414 1050 768 304
305 487 551 709 956 101 183 138 265 216 469 162 426 234 767 266 1248 27 425
-30 959 -147 1363 -149 514 -324 878 -613 1273 -295 405 -582 686 -1004 980
-445 311 -871 508 -1398 646 -349 92 -921 136 -1335 105z m815 -249 c339 -35
872 -189 1224 -355 201 -95 576 -333 769 -489 119 -95 354 -321 485 -466 204
-225 412 -527 546 -794 227 -449 342 -828 413 -1356 22 -168 25 -656 5 -820
-83 -669 -307 -1278 -663 -1805 -182 -270 -428 -547 -659 -740 -147 -125 -420
-325 -533 -392 -496 -295 -1104 -499 -1661 -558 -187 -19 -592 -20 -783 0
-522 53 -964 185 -1437 428 -718 369 -1280 921 -1632 1602 -193 374 -308 690
-378 1040 -72 367 -69 332 -73 735 -3 242 -1 414 7 485 37 356 151 814 269
1083 215 489 466 872 791 1206 477 490 1054 852 1660 1040 257 79 599 149 820
166 134 11 692 4 830 -10z"/>
<path d="M2215 7418 c-122 -78 -381 -261 -435 -307 l-35 -30 102 -1 c98 0 103
-1 108 -22 3 -13 9 -124 15 -248 5 -124 12 -234 16 -243 4 -12 13 -16 28 -11
36 10 179 84 214 110 l32 25 0 141 0 141 35 -39 c66 -74 525 -664 900 -1154
132 -173 231 -301 520 -670 44 -57 115 -148 158 -204 109 -140 126 -157 147
-146 18 10 119 139 139 177 9 18 8 29 -5 54 -17 34 -395 523 -994 1289 -536
684 -778 1000 -796 1038 -9 18 -20 63 -25 100 -5 36 -10 67 -12 68 -1 1 -51
-30 -112 -68z"/>
<path d="M6052 7424 c-16 -78 -69 -173 -163 -289 -90 -112 -189 -254 -189
-271 0 -15 36 -29 134 -54 125 -32 131 -30 202 45 l61 66 6 -1187 c4 -653 7
-1794 7 -2534 0 -1148 2 -1349 14 -1359 30 -25 251 90 262 136 4 14 2 1117 -4
2452 -5 1334 -7 2471 -3 2526 9 137 26 163 120 175 25 3 46 10 48 15 1 6 -42
39 -97 74 -56 34 -162 108 -237 162 -75 54 -139 99 -143 99 -4 0 -12 -25 -18
-56z"/>
<path d="M3835 6990 c-444 -37 -1015 -149 -1015 -199 0 -34 165 -211 197 -211
12 0 102 15 200 34 372 72 629 90 1161 83 294 -3 403 -9 546 -26 288 -35 598
-105 921 -207 93 -30 177 -54 186 -54 24 0 29 29 29 161 l0 115 -62 26 c-111
45 -459 141 -648 177 -413 80 -1160 130 -1515 101z"/>
<path d="M2280 6621 c-274 -126 -511 -270 -781 -473 -302 -227 -511 -441 -690
-708 -175 -261 -330 -644 -375 -925 -21 -136 -30 -509 -15 -672 43 -472 164
-859 377 -1203 205 -332 638 -729 1024 -939 86 -47 125 -52 134 -19 7 28 -4
205 -15 235 -5 13 -39 42 -76 66 -135 87 -360 263 -442 347 -434 442 -641 859
-717 1445 -86 661 159 1398 622 1870 298 303 808 647 1159 782 50 19 94 39 99
43 11 11 -8 42 -86 138 -33 39 -67 72 -76 72 -9 0 -73 -27 -142 -59z"/>
<path d="M5416 6500 c-20 -18 -112 -132 -204 -254 -481 -635 -704 -927 -977
-1281 -166 -214 -497 -649 -735 -965 -239 -316 -531 -701 -649 -855 -237 -310
-288 -382 -277 -393 9 -8 2261 -3 2853 7 227 4 416 11 420 15 11 10 -7 36
-160 231 -76 97 -381 496 -679 888 -531 699 -584 767 -600 767 -13 0 -94 -109
-123 -166 l-27 -54 25 -42 c24 -42 189 -258 428 -565 175 -225 552 -726 568
-756 8 -15 12 -29 10 -31 -5 -4 -1531 -11 -1896 -8 -148 1 -253 6 -253 11 0 5
55 81 123 168 67 87 343 451 612 808 477 634 683 905 1437 1887 202 262 374
488 384 503 17 26 17 28 1 40 -20 15 -156 60 -208 70 -32 6 -41 2 -73 -25z"/>
<path d="M6406 6454 c-3 -26 -6 -93 -6 -149 l0 -103 73 -40 c197 -109 365
-241 562 -443 217 -222 331 -378 450 -615 69 -136 90 -192 154 -414 45 -155
51 -215 58 -545 5 -275 3 -311 -16 -430 -59 -358 -167 -641 -354 -924 -162
-245 -329 -432 -550 -616 -263 -218 -481 -340 -867 -483 -482 -179 -837 -256
-1358 -293 -321 -23 -890 5 -1242 62 -285 45 -621 136 -828 224 -74 31 -139
54 -147 52 -34 -13 -29 -247 6 -291 26 -33 239 -102 544 -176 274 -67 360 -84
535 -104 69 -8 195 -24 281 -35 225 -30 498 -41 702 -31 181 10 633 67 802
101 225 47 556 141 775 221 321 117 761 364 993 556 141 116 385 366 467 477
196 264 342 539 434 815 95 287 122 495 113 885 -8 366 -33 513 -138 823 -154
454 -459 859 -919 1219 -151 118 -458 303 -502 303 -11 0 -17 -14 -22 -46z"/>
<path d="M2133 6214 c-45 -26 -97 -59 -115 -74 l-33 -28 0 -1588 c0 -874 2
-1944 5 -2379 5 -759 4 -791 -14 -828 -21 -42 -51 -61 -113 -72 -50 -8 -55
-26 -15 -54 51 -38 387 -254 455 -294 92 -55 104 -42 48 51 -40 67 -42 74 -52
188 -12 152 -27 1612 -35 3582 l-7 1542 -21 0 c-12 0 -58 -21 -103 -46z"/>
<path d="M6239 1482 l-126 -56 -6 -141 c-6 -163 -32 -264 -92 -353 -35 -51
-49 -99 -32 -103 5 -1 84 51 175 116 92 65 216 149 277 189 122 79 137 101 78
112 -71 12 -94 49 -113 179 -13 93 -19 115 -28 114 -4 0 -64 -26 -133 -57z"/>
</g>
</svg>
